<mxfile host="app.diagrams.net" modified="2020-10-16T08:18:18.342Z" agent="5.0 (Windows NT 10.0; Win64; x64) AppleWebKit/537.36 (KHTML, like Gecko) Chrome/81.0.4044.138 Safari/537.36" etag="2I-Ws596uAaFEUnCYRWt" version="13.8.0" type="github">
  <diagram id="oLTQcHycqo5tb6mpDoaT" name="Page-1">
    <mxGraphModel dx="1422" dy="1914" grid="1" gridSize="10" guides="1" tooltips="1" connect="1" arrows="1" fold="1" page="1" pageScale="1" pageWidth="827" pageHeight="1169" math="0" shadow="0">
      <root>
        <mxCell id="0" />
        <mxCell id="1" parent="0" />
        <mxCell id="q3t6tNgOHvqSSlSUGWxc-1" value="" style="rounded=1;whiteSpace=wrap;html=1;" vertex="1" parent="1">
          <mxGeometry x="120" y="480" width="210" height="210" as="geometry" />
        </mxCell>
        <mxCell id="q3t6tNgOHvqSSlSUGWxc-2" value="YEureka集群-2" style="rounded=1;whiteSpace=wrap;html=1;fillColor=#d5e8d4;strokeColor=#82b366;" vertex="1" parent="1">
          <mxGeometry x="150" y="520" width="150" height="60" as="geometry" />
        </mxCell>
        <mxCell id="q3t6tNgOHvqSSlSUGWxc-3" value="IDC内服务集群" style="rounded=1;whiteSpace=wrap;html=1;fillColor=#dae8fc;strokeColor=#6c8ebf;" vertex="1" parent="1">
          <mxGeometry x="150" y="610" width="150" height="60" as="geometry" />
        </mxCell>
        <mxCell id="q3t6tNgOHvqSSlSUGWxc-4" value="IDC-B" style="text;html=1;strokeColor=none;fillColor=none;align=center;verticalAlign=middle;whiteSpace=wrap;rounded=0;" vertex="1" parent="1">
          <mxGeometry x="140" y="490" width="40" height="20" as="geometry" />
        </mxCell>
        <mxCell id="q3t6tNgOHvqSSlSUGWxc-6" value="" style="rounded=1;whiteSpace=wrap;html=1;" vertex="1" parent="1">
          <mxGeometry x="750" y="480" width="210" height="210" as="geometry" />
        </mxCell>
        <mxCell id="q3t6tNgOHvqSSlSUGWxc-7" value="YEureka集群-3" style="rounded=1;whiteSpace=wrap;html=1;fillColor=#d5e8d4;strokeColor=#82b366;" vertex="1" parent="1">
          <mxGeometry x="780" y="520" width="150" height="60" as="geometry" />
        </mxCell>
        <mxCell id="q3t6tNgOHvqSSlSUGWxc-8" value="IDC内服务集群" style="rounded=1;whiteSpace=wrap;html=1;fillColor=#dae8fc;strokeColor=#6c8ebf;" vertex="1" parent="1">
          <mxGeometry x="780" y="610" width="150" height="60" as="geometry" />
        </mxCell>
        <mxCell id="q3t6tNgOHvqSSlSUGWxc-9" value="IDC-C" style="text;html=1;strokeColor=none;fillColor=none;align=center;verticalAlign=middle;whiteSpace=wrap;rounded=0;" vertex="1" parent="1">
          <mxGeometry x="770" y="490" width="40" height="20" as="geometry" />
        </mxCell>
        <mxCell id="q3t6tNgOHvqSSlSUGWxc-10" value="" style="rounded=1;whiteSpace=wrap;html=1;" vertex="1" parent="1">
          <mxGeometry x="430" y="80" width="210" height="210" as="geometry" />
        </mxCell>
        <mxCell id="q3t6tNgOHvqSSlSUGWxc-11" value="IDC内服务集群" style="rounded=1;whiteSpace=wrap;html=1;fillColor=#dae8fc;strokeColor=#6c8ebf;" vertex="1" parent="1">
          <mxGeometry x="460" y="120" width="150" height="60" as="geometry" />
        </mxCell>
        <mxCell id="q3t6tNgOHvqSSlSUGWxc-12" value="YEureka集群-1" style="rounded=1;whiteSpace=wrap;html=1;fillColor=#d5e8d4;strokeColor=#82b366;" vertex="1" parent="1">
          <mxGeometry x="460" y="210" width="150" height="60" as="geometry" />
        </mxCell>
        <mxCell id="q3t6tNgOHvqSSlSUGWxc-13" value="IDC-A" style="text;html=1;strokeColor=none;fillColor=none;align=center;verticalAlign=middle;whiteSpace=wrap;rounded=0;" vertex="1" parent="1">
          <mxGeometry x="450" y="90" width="40" height="20" as="geometry" />
        </mxCell>
        <mxCell id="q3t6tNgOHvqSSlSUGWxc-14" value="" style="endArrow=classic;startArrow=classic;html=1;exitX=1;exitY=0.5;exitDx=0;exitDy=0;strokeWidth=2;fillColor=#1ba1e2;strokeColor=#006EAF;" edge="1" parent="1" source="q3t6tNgOHvqSSlSUGWxc-2">
          <mxGeometry width="50" height="50" relative="1" as="geometry">
            <mxPoint x="490" y="320" as="sourcePoint" />
            <mxPoint x="540" y="270" as="targetPoint" />
          </mxGeometry>
        </mxCell>
        <mxCell id="q3t6tNgOHvqSSlSUGWxc-15" value="" style="endArrow=classic;startArrow=classic;html=1;entryX=0.5;entryY=1;entryDx=0;entryDy=0;exitX=0;exitY=0.5;exitDx=0;exitDy=0;fillColor=#1ba1e2;strokeColor=#006EAF;strokeWidth=2;" edge="1" parent="1" source="q3t6tNgOHvqSSlSUGWxc-7" target="q3t6tNgOHvqSSlSUGWxc-12">
          <mxGeometry width="50" height="50" relative="1" as="geometry">
            <mxPoint x="80" y="430" as="sourcePoint" />
            <mxPoint x="130" y="380" as="targetPoint" />
          </mxGeometry>
        </mxCell>
        <mxCell id="q3t6tNgOHvqSSlSUGWxc-17" value="" style="endArrow=classic;startArrow=classic;html=1;exitX=0;exitY=0.5;exitDx=0;exitDy=0;fillColor=#1ba1e2;strokeColor=#006EAF;strokeWidth=2;" edge="1" parent="1" source="q3t6tNgOHvqSSlSUGWxc-7" target="q3t6tNgOHvqSSlSUGWxc-2">
          <mxGeometry width="50" height="50" relative="1" as="geometry">
            <mxPoint x="790" y="560" as="sourcePoint" />
            <mxPoint x="545" y="280" as="targetPoint" />
          </mxGeometry>
        </mxCell>
        <mxCell id="q3t6tNgOHvqSSlSUGWxc-20" value="" style="endArrow=classic;html=1;strokeWidth=2;entryX=0.25;entryY=1;entryDx=0;entryDy=0;fillColor=#fa6800;strokeColor=#C73500;" edge="1" parent="1" target="q3t6tNgOHvqSSlSUGWxc-11">
          <mxGeometry width="50" height="50" relative="1" as="geometry">
            <mxPoint x="498" y="210" as="sourcePoint" />
            <mxPoint x="550" y="180" as="targetPoint" />
          </mxGeometry>
        </mxCell>
        <mxCell id="q3t6tNgOHvqSSlSUGWxc-21" value="" style="endArrow=classic;html=1;strokeWidth=2;entryX=0.75;entryY=0;entryDx=0;entryDy=0;exitX=0.75;exitY=1;exitDx=0;exitDy=0;fillColor=#e3c800;strokeColor=#B09500;" edge="1" parent="1" source="q3t6tNgOHvqSSlSUGWxc-11" target="q3t6tNgOHvqSSlSUGWxc-12">
          <mxGeometry width="50" height="50" relative="1" as="geometry">
            <mxPoint x="508" y="220" as="sourcePoint" />
            <mxPoint x="507.5" y="190" as="targetPoint" />
          </mxGeometry>
        </mxCell>
        <mxCell id="q3t6tNgOHvqSSlSUGWxc-25" value="" style="endArrow=classic;html=1;strokeWidth=2;entryX=0.25;entryY=0;entryDx=0;entryDy=0;exitX=0.25;exitY=1;exitDx=0;exitDy=0;fillColor=#fa6800;strokeColor=#C73500;" edge="1" parent="1" source="q3t6tNgOHvqSSlSUGWxc-2" target="q3t6tNgOHvqSSlSUGWxc-3">
          <mxGeometry width="50" height="50" relative="1" as="geometry">
            <mxPoint x="120" y="400" as="sourcePoint" />
            <mxPoint x="170" y="350" as="targetPoint" />
          </mxGeometry>
        </mxCell>
        <mxCell id="q3t6tNgOHvqSSlSUGWxc-26" value="" style="endArrow=classic;html=1;strokeWidth=2;entryX=0.75;entryY=1;entryDx=0;entryDy=0;exitX=0.75;exitY=0;exitDx=0;exitDy=0;fillColor=#e3c800;strokeColor=#B09500;" edge="1" parent="1" source="q3t6tNgOHvqSSlSUGWxc-3" target="q3t6tNgOHvqSSlSUGWxc-2">
          <mxGeometry width="50" height="50" relative="1" as="geometry">
            <mxPoint x="390" y="640" as="sourcePoint" />
            <mxPoint x="260" y="350" as="targetPoint" />
          </mxGeometry>
        </mxCell>
        <mxCell id="q3t6tNgOHvqSSlSUGWxc-27" value="" style="endArrow=classic;html=1;strokeWidth=2;entryX=0.25;entryY=0;entryDx=0;entryDy=0;exitX=0.25;exitY=1;exitDx=0;exitDy=0;fillColor=#fa6800;strokeColor=#C73500;" edge="1" parent="1" source="q3t6tNgOHvqSSlSUGWxc-7" target="q3t6tNgOHvqSSlSUGWxc-8">
          <mxGeometry width="50" height="50" relative="1" as="geometry">
            <mxPoint x="197.5" y="590" as="sourcePoint" />
            <mxPoint x="197.5" y="620" as="targetPoint" />
          </mxGeometry>
        </mxCell>
        <mxCell id="q3t6tNgOHvqSSlSUGWxc-28" value="" style="endArrow=classic;html=1;strokeWidth=2;entryX=0.75;entryY=1;entryDx=0;entryDy=0;exitX=0.75;exitY=0;exitDx=0;exitDy=0;fillColor=#e3c800;strokeColor=#B09500;" edge="1" parent="1" source="q3t6tNgOHvqSSlSUGWxc-8" target="q3t6tNgOHvqSSlSUGWxc-7">
          <mxGeometry width="50" height="50" relative="1" as="geometry">
            <mxPoint x="272.5" y="620" as="sourcePoint" />
            <mxPoint x="272.5" y="590" as="targetPoint" />
          </mxGeometry>
        </mxCell>
        <mxCell id="q3t6tNgOHvqSSlSUGWxc-29" value="" style="endArrow=classic;startArrow=classic;html=1;strokeWidth=2;entryX=0;entryY=0.5;entryDx=0;entryDy=0;exitX=0;exitY=0.5;exitDx=0;exitDy=0;fillColor=#60a917;strokeColor=#2D7600;" edge="1" parent="1" source="q3t6tNgOHvqSSlSUGWxc-11" target="q3t6tNgOHvqSSlSUGWxc-3">
          <mxGeometry width="50" height="50" relative="1" as="geometry">
            <mxPoint x="-50" y="590" as="sourcePoint" />
            <mxPoint y="540" as="targetPoint" />
            <Array as="points">
              <mxPoint x="80" y="150" />
              <mxPoint x="80" y="640" />
            </Array>
          </mxGeometry>
        </mxCell>
        <mxCell id="q3t6tNgOHvqSSlSUGWxc-30" value="" style="endArrow=classic;startArrow=classic;html=1;strokeWidth=2;exitX=0.5;exitY=1;exitDx=0;exitDy=0;entryX=0.5;entryY=1;entryDx=0;entryDy=0;fillColor=#60a917;strokeColor=#2D7600;" edge="1" parent="1" source="q3t6tNgOHvqSSlSUGWxc-3" target="q3t6tNgOHvqSSlSUGWxc-8">
          <mxGeometry width="50" height="50" relative="1" as="geometry">
            <mxPoint x="520" y="760" as="sourcePoint" />
            <mxPoint x="570" y="710" as="targetPoint" />
            <Array as="points">
              <mxPoint x="225" y="720" />
              <mxPoint x="855" y="720" />
            </Array>
          </mxGeometry>
        </mxCell>
        <mxCell id="q3t6tNgOHvqSSlSUGWxc-31" value="" style="endArrow=classic;startArrow=classic;html=1;strokeWidth=2;entryX=1;entryY=0.5;entryDx=0;entryDy=0;exitX=1;exitY=0.5;exitDx=0;exitDy=0;fillColor=#60a917;strokeColor=#2D7600;" edge="1" parent="1" source="q3t6tNgOHvqSSlSUGWxc-8" target="q3t6tNgOHvqSSlSUGWxc-11">
          <mxGeometry width="50" height="50" relative="1" as="geometry">
            <mxPoint x="390" y="430" as="sourcePoint" />
            <mxPoint x="440" y="380" as="targetPoint" />
            <Array as="points">
              <mxPoint x="1000" y="640" />
              <mxPoint x="1000" y="150" />
            </Array>
          </mxGeometry>
        </mxCell>
        <mxCell id="q3t6tNgOHvqSSlSUGWxc-33" value="" style="endArrow=classic;startArrow=classic;html=1;strokeWidth=2;fillColor=#1ba1e2;strokeColor=#006EAF;" edge="1" parent="1">
          <mxGeometry width="50" height="50" relative="1" as="geometry">
            <mxPoint x="80" y="-40" as="sourcePoint" />
            <mxPoint x="200" y="-40" as="targetPoint" />
            <Array as="points" />
          </mxGeometry>
        </mxCell>
        <mxCell id="q3t6tNgOHvqSSlSUGWxc-35" value="" style="endArrow=classic;html=1;strokeWidth=2;fillColor=#e3c800;strokeColor=#B09500;" edge="1" parent="1">
          <mxGeometry width="50" height="50" relative="1" as="geometry">
            <mxPoint x="80" y="-80" as="sourcePoint" />
            <mxPoint x="200" y="-80" as="targetPoint" />
          </mxGeometry>
        </mxCell>
        <mxCell id="q3t6tNgOHvqSSlSUGWxc-36" value="" style="endArrow=classic;html=1;strokeWidth=2;fillColor=#fa6800;strokeColor=#C73500;" edge="1" parent="1">
          <mxGeometry width="50" height="50" relative="1" as="geometry">
            <mxPoint x="80" y="-120" as="sourcePoint" />
            <mxPoint x="200" y="-120" as="targetPoint" />
          </mxGeometry>
        </mxCell>
        <mxCell id="q3t6tNgOHvqSSlSUGWxc-37" value="" style="endArrow=classic;startArrow=classic;html=1;strokeWidth=2;fillColor=#60a917;strokeColor=#2D7600;" edge="1" parent="1">
          <mxGeometry width="50" height="50" relative="1" as="geometry">
            <mxPoint x="80" y="-1" as="sourcePoint" />
            <mxPoint x="200" y="-1" as="targetPoint" />
            <Array as="points" />
          </mxGeometry>
        </mxCell>
        <mxCell id="q3t6tNgOHvqSSlSUGWxc-40" value="发现服务" style="text;html=1;strokeColor=none;fillColor=none;align=center;verticalAlign=middle;whiteSpace=wrap;rounded=0;" vertex="1" parent="1">
          <mxGeometry x="240" y="-130" width="60" height="20" as="geometry" />
        </mxCell>
        <mxCell id="q3t6tNgOHvqSSlSUGWxc-41" value="注册服务" style="text;html=1;strokeColor=none;fillColor=none;align=center;verticalAlign=middle;whiteSpace=wrap;rounded=0;" vertex="1" parent="1">
          <mxGeometry x="240" y="-90" width="60" height="20" as="geometry" />
        </mxCell>
        <mxCell id="q3t6tNgOHvqSSlSUGWxc-42" value="Rmote同步服务" style="text;html=1;strokeColor=none;fillColor=none;align=center;verticalAlign=middle;whiteSpace=wrap;rounded=0;" vertex="1" parent="1">
          <mxGeometry x="240" y="-50" width="100" height="20" as="geometry" />
        </mxCell>
        <mxCell id="q3t6tNgOHvqSSlSUGWxc-43" value="RPC" style="text;html=1;strokeColor=none;fillColor=none;align=center;verticalAlign=middle;whiteSpace=wrap;rounded=0;" vertex="1" parent="1">
          <mxGeometry x="240" y="-10" width="40" height="20" as="geometry" />
        </mxCell>
      </root>
    </mxGraphModel>
  </diagram>
</mxfile>
